<?xml version="1.0" encoding="utf-8"?>
<!-- Generator: Adobe Illustrator 25.2.3, SVG Export Plug-In . SVG Version: 6.00 Build 0)  -->
<svg version="1.1" id="Layer_1" xmlns="http://www.w3.org/2000/svg" xmlns:xlink="http://www.w3.org/1999/xlink" x="0px" y="0px"
	 viewBox="0 0 492.00177 101.3280029" style="enable-background:new 0 0 492.00177 101.3280029;" xml:space="preserve">
<g>
	<g id="Group_212" transform="translate(103.628 18.828)">
		<g id="Group_211">
			<g id="Group_210">
				<g id="Group_209">
					<path id="Path_149" d="M2.4869998,0.5650007h15.1429977v4.5330009H7.3980031v4.1560001h9.6650009v4.532999H7.3980031v4.5390015
						h10.8000031v4.5299988H2.4880068L2.4869998,0.5650007z"/>
					<path id="Path_150" d="M27.6720047,11.2070007L20.3050079,0.5650007h6.1700058l4.7539978,7.8080006l4.5659943-7.8080006
						h5.9490051l-7.2079926,10.5480003l8.0599976,11.743h-6.1710052l-5.4459991-8.973999l-5.2890167,8.973999h-5.8239975
						L27.6720047,11.2070007z"/>
					<path id="Path_151" d="M45.0499954,0.5650007h15.1439972v4.5330009H49.9610062v4.1560001h9.6660004v4.532999h-9.6660004
						v4.5390015h10.8000031v4.5299988H45.0499954V0.5650007z"/>
					<path id="Path_152" d="M79.272995,6.3590012c-0.4777679-0.5853043-1.0869446-1.0495605-1.7779999-1.3549995
						c-0.7708435-0.3278904-1.6025085-0.4884281-2.4400024-0.4710007c-1.7580719-0.0186825-3.4388428,0.7214851-4.6119995,2.0310001
						c-0.5942841,0.666605-1.0540466,1.4418354-1.3540039,2.2830009c-0.6498108,1.8595314-0.6498108,3.8844681,0,5.7439995
						c0.3018341,0.8321877,0.7559052,1.6009407,1.3390045,2.2669983c0.5545654,0.6329422,1.2359619,1.1422844,2,1.4949989
						c0.7737579,0.3597221,1.6177368,0.5431366,2.470993,0.5369987c0.9306183,0.0186501,1.8508301-0.1984177,2.6750031-0.6310005
						c0.7764282-0.418663,1.4365692-1.023819,1.9210052-1.7610016l4.0930023,3.052002
						c-0.9024811,1.2891693-2.1448822,2.3027458-3.5890045,2.9280014c-1.4088898,0.620842-2.9313812,0.9422989-4.470993,0.9440002
						c-1.6416321,0.0172386-3.2730865-0.2598038-4.8170013-0.8180008c-1.4170685-0.513237-2.7137909-1.3116913-3.8099976-2.3460007
						c-1.0862579-1.0421181-1.938446-2.3033562-2.5-3.7000008c-0.6172943-1.5410309-0.9231873-3.1890907-0.8999939-4.848999
						c-0.0228271-1.6598778,0.2830505-3.3078632,0.8999939-4.848999c0.5617981-1.3965149,1.4139557-2.6577034,2.5-3.7000008
						c1.0967865-1.0333176,2.3933716-1.8313426,3.8099976-2.3449993c1.5437927-0.5586777,3.1753235-0.8357372,4.8170013-0.8180008
						c0.6596527,0.0021572,1.3179779,0.0596943,1.9680023,0.1720009c0.6878357,0.1169376,1.3624268,0.3015003,2.0139923,0.5510006
						c0.6712952,0.2589474,1.3091736,0.5973568,1.8999939,1.0079994c0.6191711,0.4295214,1.1708832,0.9488887,1.6369934,1.5410002
						L79.272995,6.3590012z"/>
					<path id="Path_153" d="M105.0599976,14.2590008c0.0124817,1.2435074-0.1905212,2.4797783-0.6000061,3.6539993
						c-0.3797302,1.0823174-0.9862671,2.0710411-1.779007,2.9000015c-0.8302765,0.84618-1.8348846,1.5013657-2.9440002,1.9199982
						c-2.6400146,0.9228249-5.5149841,0.9228249-8.1549988,0c-1.1087952-0.4186745-2.1130676-1.073864-2.9429932-1.9199982
						c-0.7930603-0.8287163-1.3996277-1.8175125-1.779007-2.9000015c-0.4099121-1.1741104-0.6129303-2.4104576-0.6000061-3.6539993
						V0.5650007h4.9109955v13.5060005c-0.0067139,0.6546669,0.1050873,1.3051414,0.3300018,1.9199982
						c0.2062836,0.5651169,0.5219727,1.0840149,0.9290009,1.5270004c0.4006348,0.4326591,0.8878784,0.7761078,1.4300232,1.0079994
						c0.5719452,0.2453384,1.1886902,0.3689575,1.8110046,0.362999c0.6172333,0.0069542,1.2289581-0.1167526,1.7949982-0.362999
						c0.5362396-0.2351379,1.0182648-0.5782776,1.4160004-1.0079994c0.4067535-0.4431915,0.7224121-0.9620323,0.9290009-1.5270004
						c0.2249146-0.6148567,0.3367157-1.2653313,0.3300018-1.9199982V0.5650007h4.9189911V14.2590008z"/>
					<path id="Path_154" d="M113.9039993,4.9099998h-6.3589935V0.5650007h17.6300049v4.3449993h-6.3589935v17.9460011h-4.9109955
						L113.9039993,4.9099998z"/>
					<path id="Path_155" d="M127.6019974,0.5650007h4.9110031v22.2910004h-4.9110031V0.5650007z"/>
					<path id="Path_156" d="M134.7770081,0.5650007h5.6000061l5.5090027,14.6080017h0.0630035l5.6000061-14.6079998h5.2570038
						l-9.184021,22.2909985h-3.9360046L134.7770081,0.5650007z"/>
					<path id="Path_157" d="M159.3329926,0.5650007h15.1430054v4.5330009h-10.2319946v4.1560001h9.6660156v4.532999h-9.6660156
						v4.5390015h10.7999878v4.5299988h-15.7099915L159.3329926,0.5650007z"/>
					<path id="Path_158" d="M188.2970123,0.5650007h7.3659973c1.7131042-0.0075321,3.4207153,0.1939564,5.0849915,0.6000004
						c1.515564,0.3574791,2.9438171,1.0158423,4.2000122,1.9360007c1.2145996,0.9147358,2.1916809,2.1078815,2.848999,3.4790001
						c0.7451172,1.6275845,1.1060791,3.4046898,1.0549927,5.1940002c0.0343323,1.6475754-0.3159485,3.2804661-1.0230103,4.7689991
						c-0.6552734,1.3411293-1.59552,2.5229912-2.7550049,3.4630013c-1.1882019,0.9530373-2.5451355,1.6739197-4,2.125
						c-1.537262,0.4877281-3.1412354,0.7326736-4.7539978,0.7260017h-8.0229797V0.5650007z M193.2089996,18.3260021h2.5499878
						c1.0643005,0.007637,2.125824-0.1091576,3.1629944-0.3479996c0.915741-0.2040596,1.7790527-0.5963669,2.5350342-1.1520004
						c0.7276306-0.5534515,1.3066101-1.2787857,1.6849976-2.1110001c0.4359436-1.007225,0.6452332-2.09795,0.6130066-3.1949997
						c0.0231934-0.9847202-0.1868591-1.9609642-0.6130066-2.848999c-0.390564-0.7847462-0.9565125-1.4690762-1.6539917-2
						c-0.7317505-0.5435257-1.5596008-0.9438839-2.4400024-1.1800003c-0.9585876-0.2658825-1.9492188-0.3984604-2.9440002-0.3939991
						h-2.8999939L193.2089996,18.3260021z"/>
					<path id="Path_159" d="M219.5290222,0.5650007h4.0610046l9.7000122,22.2910004h-5.5419922l-1.9200134-4.7220001h-8.6570129
						l-1.8610229,4.7220001h-5.4150085L219.5290222,0.5650007z M221.4180298,7.0500011l-2.7070007,6.927002h5.4460144
						L221.4180298,7.0500011z"/>
					<path id="Path_160" d="M246.5419922,6.0130005c-0.4224243-0.5201149-0.9849243-0.9084148-1.6210022-1.1189995
						c-0.6202698-0.2289677-1.2749023-0.3510323-1.9360046-0.3610001c-0.3701477,0.0013084-0.7390137,0.0432262-1.1000061,0.125
						c-0.3725891,0.083252-0.7324219,0.2157497-1.0700073,0.3939991c-0.3248596,0.1683311-0.6054688,0.4108944-0.8190002,0.7080002
						c-0.2156372,0.3143158-0.3259583,0.6889763-0.3150024,1.0699997c-0.0299377,0.6100845,0.2555542,1.1927834,0.756012,1.5429993
						c0.5841675,0.3972855,1.2246399,0.7047043,1.8999939,0.9120007c0.7653503,0.2519989,1.5890198,0.5040016,2.4710083,0.7560005
						c0.8676147,0.2459946,1.6986084,0.6065006,2.4710083,1.0720005c0.7671509,0.4645214,1.4172363,1.0992031,1.8999939,1.8549995
						c0.5462646,0.9447746,0.8087463,2.0269432,0.756012,3.1170006c0.0259399,1.1203308-0.2114258,2.2311134-0.6929932,3.243
						c-0.4411011,0.8995399-1.0821228,1.6862717-1.8739929,2.2999992c-0.8170776,0.6240883-1.7471619,1.0842094-2.7390137,1.3549995
						c-2.4078979,0.6536713-4.955719,0.577095-7.3200073-0.2200012c-1.2853699-0.4724998-2.460968-1.2020111-3.4549866-2.1439972
						l3.4949951-3.8400002c0.498291,0.6670494,1.1523438,1.2019577,1.9049988,1.5579987
						c1.1127014,0.5483742,2.3814392,0.6929588,3.5889893,0.4090004c0.3858643-0.0858269,0.7566833-0.2290878,1.1000061-0.4249992
						c0.3145142-0.1784821,0.5837708-0.4268799,0.7869873-0.7260017c0.2034302-0.307724,0.308075-0.6702042,0.2999878-1.0390015
						c0.0223083-0.6252403-0.2668762-1.2208557-0.7720032-1.5900002c-0.5914307-0.4266891-1.2442017-0.7611656-1.9360046-0.9920006
						c-0.776001-0.2713356-1.6153259-0.5439987-2.5180054-0.8180008c-0.8814087-0.2625237-1.727356-0.6319351-2.5190125-1.1000004
						c-0.7724609-0.4579639-1.4336853-1.0816174-1.9360046-1.8260002c-0.5532837-0.8966179-0.8223877-1.9396248-0.7720032-2.9920006
						c-0.0238037-1.0908012,0.2196045-2.170866,0.7090149-3.1459999c0.4561462-0.8848267,1.1009827-1.6587124,1.8890076-2.2670002
						c0.8146057-0.6228046,1.7384644-1.0877953,2.723999-1.3710003c1.0325012-0.3042984,2.1036072-0.4575539,3.1799927-0.4549999
						c1.2371216-0.0037804,2.4679565,0.1765251,3.6520081,0.5349998c1.1785889,0.357914,2.2641602,0.9703445,3.1799927,1.7940005
						L246.5419922,6.0130005z"/>
					<path id="Path_161" d="M253.5939941,0.5650007h4.9110107v8.3110008h9.5390015V0.5650007h4.9089966v22.2910004h-4.9110107
						v-9.6300011h-9.5390015v9.6300011H253.59198L253.5939941,0.5650007z"/>
					<path id="Path_162" d="M277.4879761,0.5650007h8.3120117c0.9740906-0.0000916,1.947052,0.0667324,2.9119873,0.2000008
						c0.916748,0.1197014,1.8058472,0.3971272,2.6279907,0.8199997c0.766571,0.4003181,1.4171143,0.9912947,1.8890076,1.7159995
						c0.5224609,0.8838406,0.7741699,1.9015179,0.723999,2.927c0.041626,1.1379662-0.3334961,2.2520065-1.0549927,3.1329994
						c-0.7362976,0.850153-1.7039185,1.4678898-2.7850037,1.7779999v0.0639992c0.6959229,0.0926361,1.3717041,0.2997665,2,0.6130009
						c0.5802917,0.2913589,1.1027832,0.68577,1.5419922,1.1639996c0.4350281,0.4816074,0.7720032,1.0434246,0.9920044,1.6540012
						c0.2339478,0.645504,0.3514404,1.3274193,0.3469849,2.0139999c0.0374756,1.0340538-0.2250671,2.0568619-0.756012,2.9449997
						c-0.4944153,0.7762222-1.1627197,1.4267197-1.9519958,1.9000015c-0.8319702,0.4966087-1.7422485,0.848278-2.6919861,1.0400009
						c-0.9780579,0.2078476-1.9750977,0.3134155-2.9750061,0.3149986h-9.131012L277.4879761,0.5650007z M282.3989868,9.4759998
						h3.5580139c0.3762817-0.0000305,0.7513123-0.042635,1.1180115-0.1270008
						c0.3519592-0.0770092,0.6877136-0.2150974,0.9920044-0.407999c0.2940979-0.190506,0.5371704-0.4500446,0.7080078-0.7560005
						c0.1867371-0.348505,0.2791443-0.7397728,0.2680054-1.1350002c0.0151062-0.4038467-0.0892334-0.8031788-0.2999878-1.1480007
						c-0.1929932-0.2976608-0.458252-0.5415821-0.7709961-0.7089996c-0.335968-0.1747112-0.6968689-0.2964802-1.0700073-0.3610001
						c-0.3842163-0.0717335-0.7741394-0.1085491-1.1650085-0.1100006h-3.3380127L282.3989868,9.4759998z M282.3989868,18.6999989
						h4.4079895c0.3864441-0.0007172,0.771698-0.0433006,1.1489868-0.1269989
						c0.3764038-0.0778885,0.7344666-0.2268867,1.0549927-0.4389992c0.3157043-0.211525,0.5793152-0.49189,0.7709961-0.8199997
						c0.2096863-0.3748436,0.313385-0.7996979,0.2999878-1.2290001c0.0209961-0.4578972-0.1183472-0.908783-0.3940125-1.2750015
						c-0.2637939-0.3255081-0.6048279-0.5798874-0.9920044-0.7400017c-0.4134216-0.1712761-0.8474121-0.2879257-1.2909851-0.3470001
						c-0.4274597-0.0598068-0.8583984-0.0912094-1.2900085-0.0940018h-3.7160034L282.3989868,18.6999989z"/>
					<path id="Path_163" d="M296.6929932,11.710001c-0.0223389-1.6598377,0.2835083-3.3077316,0.8999939-4.848999
						c0.5622253-1.396286,1.4143372-2.6573887,2.5-3.7000008c1.0966187-1.0335197,2.3932495-1.8315734,3.8099976-2.3449993
						c3.1184387-1.0902786,6.5145569-1.0902786,9.6329956,0c1.416626,0.5136814,2.7131958,1.3117045,3.8099976,2.3449993
						c1.0859985,1.0423374,1.9381409,2.3035145,2.5,3.7000008c0.6169434,1.5411358,0.922821,3.1891212,0.8999939,4.848999
						c0.0232239,1.6599121-0.2826843,3.3079758-0.8999939,4.848999c-0.5615845,1.3966293-1.4137573,2.6578598-2.5,3.7000008
						c-1.0962219,1.0343094-2.3929443,1.8327637-3.8099976,2.3460007c-3.1184692,1.0901985-6.5145264,1.0901985-9.6329956,0
						c-1.4171753-0.5130043-2.7139282-1.3114891-3.8099976-2.3460007c-1.0858765-1.0424347-1.9380188-2.3035851-2.5-3.7000008
						C296.9761353,15.0178356,296.6702881,13.3698692,296.6929932,11.710001z M301.7929993,11.710001
						c-0.0122375,0.9818916,0.1530762,1.9579124,0.4880066,2.8810005c0.307312,0.8431702,0.7837219,1.614624,1.3999939,2.2669983
						c0.6160889,0.6466637,1.3616333,1.156086,2.1879883,1.4949989c1.832428,0.7166252,3.8675842,0.7166252,5.7000122,0
						c0.8266602-0.3388939,1.5725403-0.8483124,2.1889954-1.4949989c0.6155701-0.6529045,1.0918884-1.4242096,1.3999939-2.2669983
						c0.6498108-1.8595314,0.6498108-3.8844681,0-5.7439995c-0.3047791-0.8491364-0.7813721-1.6263142-1.3999939-2.2830009
						c-0.6163025-0.6480999-1.3621216-1.1591854-2.1889954-1.5c-1.8329163-0.7139816-3.8670959-0.7139816-5.7000122,0
						c-0.8265686,0.340807-1.5720825,0.851902-2.1879883,1.5c-0.6193237,0.6561584-1.0959778,1.4334888-1.3999939,2.2830009
						c-0.3318787,0.9176254-0.4968262,1.8872509-0.4869995,2.862999H301.7929993z"/>
					<path id="Path_164" d="M331.4190063,0.5650007h4.0620117l9.7000122,22.2910004h-5.5409851l-1.92099-4.7220001h-8.6570129
						l-1.8580017,4.7220001h-5.4180298L331.4190063,0.5650007z M333.3080139,7.0500011l-2.7080078,6.927002h5.4460144
						L333.3080139,7.0500011z"/>
					<path id="Path_165" d="M347.4130249,0.5650007h8.6260071c1.0840454-0.0055046,2.1655579,0.1051254,3.2260132,0.3299999
						c0.95401,0.1936264,1.8624878,0.566925,2.677002,1.1000004c0.7757568,0.5257872,1.4042969,1.2410792,1.8259888,2.0779991
						c0.4828186,1.0166378,0.7149658,2.1341782,0.677002,3.2590008c0.0429993,1.4362965-0.3886108,2.8467216-1.2279968,4.0130005
						c-0.8782043,1.1384907-2.165741,1.8896923-3.5889893,2.0939999l5.6669922,9.4140015h-5.8869934l-4.6600037-8.9109993
						h-2.4240112v8.9139977h-4.9110107V0.5650007z M352.3240356,9.7900009h2.8999939
						c0.4406738,0,0.9073486-0.0160007,1.3999939-0.0480003c0.4583435-0.0240479,0.9101257-0.1195316,1.3389893-0.282999
						c0.3912964-0.1522732,0.7338562-0.4080601,0.9909973-0.7399998c0.2860107-0.4150257,0.4247131-0.9139061,0.3940125-1.4169998
						c0.0246277-0.4765587-0.0967712-0.9492855-0.3479919-1.3549995c-0.2223511-0.32798-0.5254211-0.5931664-0.8800049-0.7700005
						c-0.386322-0.1883507-0.8013611-0.3110313-1.2279968-0.3630009c-0.4490967-0.0613689-0.9017639-0.0927715-1.355011-0.0939999
						h-3.2099915L352.3240356,9.7900009z"/>
					<path id="Path_166" d="M367.8140259,0.5650007h7.3659973c1.7131042-0.0075417,3.4207153,0.1939468,5.0849915,0.6000004
						c1.515564,0.3574791,2.9438171,1.0158423,4.2000122,1.9360007c1.2146606,0.9146786,2.1917725,2.1078377,2.848999,3.4790001
						c0.7451172,1.6275845,1.1060791,3.4046898,1.0549927,5.1940002c0.0343323,1.6475754-0.3159485,3.2804661-1.0230103,4.7689991
						c-0.6552429,1.3411446-1.5954895,2.5230141-2.7550049,3.4630013c-1.1882019,0.9530144-2.545166,1.6738968-4,2.125
						c-1.537262,0.4877281-3.1412354,0.7326736-4.7539978,0.7260017h-8.0270081L367.8140259,0.5650007z M372.7250061,18.3260021
						h2.5499878c1.0643005,0.007637,2.125824-0.1091576,3.1629944-0.3479996
						c0.9150696-0.2029877,1.7779846-0.5939178,2.5339966-1.1479988c0.7276611-0.5534248,1.3066406-1.2787628,1.6849976-2.1110001
						c0.4359436-1.007225,0.6452332-2.09795,0.6130066-3.1949997c0.0231934-0.9847202-0.1868591-1.9609642-0.6130066-2.848999
						c-0.390564-0.7847462-0.9565125-1.4690762-1.6539917-2c-0.7317505-0.5435257-1.5596008-0.9438839-2.4400024-1.1800003
						c-0.9585876-0.2658825-1.9492188-0.3984604-2.9440002-0.3939991h-2.8999939L372.7250061,18.3260021z"/>
					<path id="Path_167" d="M9.6300049,40.6170006h4.060997l9.6999969,22.2910004h-5.5410004l-1.9199982-4.7220001H7.2730031
						l-1.8580017,4.7220001H0.0000004L9.6300049,40.6170006z M11.5190048,47.1030006l-2.7070007,6.927002h5.4459991
						L11.5190048,47.1030006z"/>
					<path id="Path_168" d="M25.6269989,40.6170006h6.6740036l9.477005,15.4909973h0.0619965V40.6170006h4.9109955v22.2910004
						h-6.4219971l-9.727005-15.8670044H30.538002v15.8670044h-4.9110031V40.6170006z"/>
					<path id="Path_169" d="M51.284996,40.6170006h7.3659973c1.7131042-0.0076637,3.4207306,0.1938286,5.0850067,0.5999985
						c1.5154114,0.3578949,2.9435883,1.0162201,4.1999969,1.9360008c1.2148895,0.9151268,2.192276,2.1085777,2.8500061,3.4799995
						c0.7447662,1.6273193,1.1053925,3.4040909,1.0540009,5.1930008c0.0346527,1.6482468-0.3156281,3.2818527-1.022995,4.7709961
						c-0.6552582,1.3411484-1.5954895,2.5230103-2.7550049,3.4629974c-1.1880035,0.9530792-2.5450287,1.6736603-4,2.1240005
						c-1.5368958,0.4878006-3.1405792,0.7324142-4.753006,0.7249985h-8.0279999L51.284996,40.6170006z M56.1959915,58.3749962
						h2.5500031c1.0642242,0.0074615,2.1257019-0.1089859,3.1629944-0.3470001
						c0.9152985-0.2028427,1.7783051-0.594162,2.5339966-1.1490021c0.7276306-0.5530548,1.3065948-1.2780609,1.6849976-2.1100006
						c0.4356384-1.0073242,0.6448975-2.0979767,0.6130066-3.1949997c0.0232849-0.9850464-0.1867676-1.9616394-0.6130066-2.8499985
						c-0.3907166-0.7846527-0.9566345-1.4689484-1.654007-2c-0.7311401-0.5439072-1.5587463-0.9443092-2.4389954-1.1800003
						c-0.9585419-0.2684135-1.9496002-0.4030228-2.9450073-0.4000015h-2.8999939L56.1959915,58.3749962z"/>
					<path id="Path_170" d="M84.4990005,40.6170006h7.4299927l5.1309967,14.5469971h0.0630035l5.1640015-14.5470009h7.3999939
						v22.2910042h-4.9120026V45.8080025h-0.0630035l-5.8560028,17.0999985h-3.7460022l-5.6360016-17.0999985h-0.0630035v17.0999985
						h-4.9109955L84.4990005,40.6170006z"/>
					<path id="Path_171" d="M113.022995,51.7630005c-0.0223541-1.6598358,0.2835083-3.3077316,0.8999939-4.848999
						c0.5616455-1.3966026,1.4138184-2.6578217,2.5-3.7000008c1.0965576-1.0338554,2.3931885-1.8322525,3.8099976-2.3460007
						c3.118454-1.0902786,6.5145416-1.0902786,9.6329956,0c1.4163971,0.5139999,2.7126465,1.3123703,3.8090057,2.3460007
						c1.0858154,1.0424957,1.9379272,2.3036308,2.5,3.7000008c1.1965027,3.1226425,1.1965027,6.5773544,0,9.6999969
						c-0.5623169,1.3962402-1.4143982,2.6573257-2.5,3.6999969c-1.0961456,1.0336533-2.3924866,1.8317337-3.8090057,2.3450012
						c-3.118454,1.0902786-6.5145416,1.0902786-9.6329956,0c-1.4169464-0.5130157-2.7136383-1.3111191-3.8099976-2.3450012
						c-1.0859528-1.0423737-1.9380951-2.3035431-2.5-3.6999969
						C113.3060913,55.0721512,113.0002289,53.4235229,113.022995,51.7630005z M118.1230011,51.7630005
						c-0.0120544,0.9814606,0.1529236,1.9570618,0.4869995,2.8799973c0.3072052,0.8432159,0.7836304,1.6146927,1.3999939,2.2669983
						c0.6153564,0.6487427,1.3610229,1.1599426,2.1880035,1.5c1.8324585,0.716423,3.8675385,0.716423,5.6999969,0
						c0.8271332-0.3403091,1.5730743-0.8514633,2.1889954-1.5c0.6159363-0.6526337,1.0923004-1.4240112,1.3999939-2.2669983
						c0.6510773-1.8593216,0.6510773-3.8846817,0-5.7440033c-0.3052521-0.8489075-0.7817841-1.6259995-1.3999939-2.2829971
						c-0.6169128-0.6461334-1.3626862-1.155468-2.1889954-1.4949989c-1.8327179-0.7150536-3.8672791-0.7150536-5.6999969,0
						c-0.8261566,0.339283-1.5716553,0.8486595-2.1880035,1.4949989c-0.6185303,0.6567535-1.095108,1.4339142-1.3999939,2.2829971
						c-0.3309479,0.91819-0.4955292,1.8880386-0.4860077,2.864006H118.1230011z"/>
					<path id="Path_172" d="M140.4130096,40.6170006h6.673996l9.4769897,15.4909973h0.0620117V40.6170006h4.9110107v22.2910004
						h-6.4219971l-9.7270203-15.8670044h-0.0639954v15.8670044h-4.9109955V40.6170006z"/>
					<path id="Path_173" d="M166.0050049,40.6170006h4.9110107v22.2910004h-4.9110107V40.6170006z"/>
					<path id="Path_174" d="M179.7010193,44.9620018h-6.3590088v-4.3450012h17.6300049v4.3450012h-6.3590088v17.9459991h-4.9119873
						V44.9620018z"/>
					<path id="Path_175" d="M192.2640228,51.7630005c-0.0223389-1.6598358,0.2835083-3.3077316,0.8999939-4.848999
						c0.561615-1.3966141,1.4137878-2.6578407,2.5-3.7000008c1.0965271-1.0338783,2.393158-1.8322754,3.8099976-2.3460007
						c3.1184387-1.0902786,6.5145569-1.0902786,9.6329956,0c1.4163818,0.5140266,2.712616,1.312397,3.8089905,2.3460007
						c1.0858154,1.0424957,1.9379272,2.3036308,2.5,3.7000008c1.1963196,3.122673,1.1963196,6.5773239,0,9.6999969
						c-0.5623169,1.3962402-1.4143982,2.6573257-2.5,3.6999969c-1.0961609,1.0336304-2.3924866,1.8317108-3.8089905,2.3450012
						c-3.1184387,1.0902786-6.5145569,1.0902786-9.6329956,0c-1.4169617-0.5129929-2.7136536-1.3110962-3.8099976-2.3450012
						c-1.085968-1.0423584-1.9381104-2.3035278-2.5-3.6999969
						C192.5471344,55.0721512,192.2412567,53.4235229,192.2640228,51.7630005z M197.3640289,51.7630005
						c-0.0122375,0.9815674,0.1531067,1.9572525,0.4880066,2.8799973c0.3067627,0.8434296,0.7832642,1.6149902,1.3999939,2.2669983
						c0.6155701,0.6484909,1.3611755,1.1596451,2.1879883,1.5c1.8324585,0.7164307,3.8675537,0.7164307,5.7000122,0
						c0.8271484-0.3402863,1.5730896-0.8514404,2.1889954-1.5c0.6160583-0.6525269,1.0924683-1.4239426,1.3999939-2.2669983
						c0.6511536-1.8593063,0.6511536-3.884697,0-5.7440033c-0.3052368-0.8489227-0.7817688-1.6260147-1.3999939-2.2829971
						c-0.6168823-0.6461563-1.3626709-1.1554947-2.1889954-1.4949989c-1.8327332-0.7150574-3.8672791-0.7150574-5.7000122,0
						c-0.8270874,0.3391762-1.5735779,0.8485374-2.1910095,1.4949989c-0.618927,0.656456-1.0955505,1.4337006-1.3999939,2.2829971
						c-0.3307495,0.91819-0.4946594,1.8881226-0.4840088,2.864006H197.3640289z"/>
					<path id="Path_176" d="M219.6539917,40.6170006h8.6270142c1.0845032-0.004261,2.1663513,0.1077118,3.2269897,0.3339996
						c0.9541321,0.1931572,1.8627014,0.5664902,2.677002,1.0999985c0.7758789,0.5260658,1.4044495,1.2417145,1.8259888,2.0789986
						c0.482666,1.0166588,0.7144775,2.134243,0.6759949,3.2589989c0.0432129,1.4361725-0.388031,2.8465652-1.2269897,4.0130005
						c-0.8785095,1.1381683-2.165863,1.8892899-3.5889893,2.0940018l5.6669922,9.413002h-5.8869934l-4.6600037-8.9110031h-2.4249878
						v8.9110031h-4.9110107L219.6539917,40.6170006z M224.5650024,49.8429985h2.8999939
						c0.4406738,0,0.9073181-0.0163345,1.3999939-0.0490036c0.4584961-0.0228729,0.9104614-0.1183929,1.3389893-0.2829971
						c0.3912964-0.1522751,0.7341003-0.4076385,0.9920044-0.7389984c0.2852478-0.4157257,0.4235535-0.9147568,0.3930054-1.4179993
						c0.0245972-0.4762878-0.0960693-0.9488144-0.3460083-1.3550034c-0.2229309-0.3278427-0.5262756-0.5929718-0.881012-0.7700005
						c-0.3868408-0.1879387-0.802124-0.3105927-1.2290039-0.362999c-0.448761-0.0613594-0.9010925-0.0927658-1.3540039-0.0940018
						h-3.2109985L224.5650024,49.8429985z"/>
					<path id="Path_177" d="M239.9920197,40.6170006h4.9110107v22.2910004h-4.9110107V40.6170006z"/>
					<path id="Path_178" d="M249.3740234,40.6170006h6.6740112l9.4769897,15.4909973h0.0620117V40.6170006h4.9099731v22.2910004
						h-6.4200134l-9.7289734-15.8670044h-0.0629883v15.8670044h-4.9110107V40.6170006z"/>
					<path id="Path_179" d="M295.2179871,61.3339996c-1.4302368,0.7484512-2.9555054,1.2991486-4.5339966,1.637001
						c-1.5836487,0.3353729-3.1982117,0.5029602-4.8169861,0.5c-1.6413574,0.017662-3.2725525-0.2593994-4.8160095-0.8180008
						c-1.4169312-0.5130157-2.7136536-1.3111191-3.8099976-2.3450012c-1.0860596-1.0422745-1.9382324-2.3034668-2.5-3.6999969
						c-1.1991577-3.1221466-1.1991577-6.5778503,0-9.6999969c0.5615234-1.3966599,1.4137268-2.6579018,2.5-3.7000008
						c1.0965576-1.0338554,2.3931885-1.8322525,3.8099976-2.3460007c1.5436096-0.5581207,3.1747131-0.8351631,4.8160095-0.8180008
						c1.6647034-0.0158195,3.3234558,0.2012863,4.928009,0.6450005c1.4746094,0.4159317,2.8291931,1.1765137,3.9519958,2.2190018
						l-3.4690247,3.7859955c-0.6413879-0.6724014-1.4126282-1.2075462-2.2669983-1.572998
						c-1.003418-0.3868523-2.0740967-0.5690956-3.1489868-0.5359993c-0.9756775-0.0142746-1.9442444,0.1680145-2.8479919,0.5359993
						c-0.8261414,0.3392868-1.5716553,0.8486633-2.1879883,1.4950027c-0.6188354,0.6565094-1.095459,1.4337387-1.3999939,2.2829971
						c-0.6511536,1.8593063-0.6511536,3.884697,0,5.7440033c0.3068542,0.8433914,0.7833252,1.6149368,1.3999939,2.2669983
						c0.615387,0.6487198,1.3610229,1.1599121,2.1879883,1.5c0.903656,0.3683319,1.8722534,0.5509567,2.8479919,0.5370026
						c0.9365845,0.017746,1.870575-0.1046066,2.7709961-0.362999c0.6408081-0.1879425,1.2625427-0.4356995,1.8569946-0.7399979
						v-3.6250076h-4v-4.5340042h8.7279968V61.3339996z"/>
				</g>
			</g>
		</g>
	</g>
	<g id="Group_225">
		<g id="Group_213">
			<path id="Path_180" d="M42.5390015,101.3280029L6.9829998,86.9229965L0,18.1000004L42.5390015,0l42.5410004,18.1000004
				l-6.9800034,68.822998L42.5390015,101.3280029z M11.5839996,83.4729996l30.9550018,12.5410004L73.5,83.4729996
				l6.3190002-62.2639999L42.5390015,5.3520002L5.2649999,21.2089996L11.5839996,83.4729996z"/>
		</g>
		<g id="Group_217" transform="translate(18.232 27.354)">
			<g id="Group_214">
				<path id="Path_181" d="M19.2980003,7.7810001c-0.5855865-0.7152634-1.3313828-1.2825737-2.177002-1.6559982
					c-0.9426804-0.4025002-1.9601974-0.599865-2.9850006-0.5789986C11.9848518,5.5227757,9.9282055,6.4284611,8.4929981,8.031004
					c-0.7254367,0.8166008-1.2875838,1.7647133-1.6559978,2.7929955c-0.7957039,2.2757874-0.7957039,4.7542114,0,7.0299988
					c0.3697548,1.0174866,0.9247837,1.9576797,1.6369987,2.7729988c0.6795807,0.7730484,1.5125637,1.3962555,2.4459991,1.8300018
					c0.9472847,0.4389,1.9800053,0.6625862,3.0240002,0.6549988c1.1387234,0.0227776,2.2647991-0.2420578,3.2740002-0.7700005
					c0.9499168-0.5132332,1.7574387-1.2544365,2.3499985-2.1570015l5.0079994,3.7369995
					c-1.1054344,1.5767822-2.6259689,2.8166084-4.3929977,3.5820045c-1.7235756,0.7599602-3.5863228,1.1532822-5.4700012,1.1549988
					c-2.008316,0.0215988-4.0042324-0.3170929-5.8929996-1c-1.7333465-0.6283493-3.3196139-1.6050873-4.6609988-2.8699989
					c-1.3295672-1.2748871-2.373251-2.8175774-3.0620003-4.526001c-0.7539864-1.8855247-1.1278191-3.9014969-1.1000004-5.9319992
					c-0.0278187-2.0308266,0.3460102-4.047123,1.1000004-5.9329987C1.7860054,6.6900082,2.8296664,5.1476955,4.158999,3.8730011
					C5.501061,2.608717,7.0875897,1.6323644,8.8209991,1.0039998c1.8888721-0.6825085,3.8847179-1.0211887,5.8930016-1
					c0.8071785,0.0033417,1.6126556,0.0742569,2.4080009,0.2119999c0.8417397,0.1434746,1.667366,0.3692246,2.4650002,0.6739998
					c0.8236008,0.3161125,1.6062126,0.7300816,2.3310013,1.2329997c0.7567902,0.5264416,1.4308662,1.1627693,2,1.8880005
					L19.2980003,7.7810001z"/>
			</g>
			<g id="Group_215" transform="translate(25.808)">
				<path id="Path_182" d="M15.5229988,7.3570004c-0.5176926-0.6363907-1.2068901-1.1111221-1.9860001-1.368
					c-0.7587662-0.2811737-1.5599022-0.4309883-2.3689995-0.4430008c-0.4539299,0.0021057-0.9062729,0.0537453-1.348999,0.1539993
					c-0.4559517,0.1008301-0.896244,0.262619-1.3090019,0.480999c-0.3967285,0.2065582-0.7392921,0.5035591-1,0.8670006
					c-0.2647438,0.3841133-0.399971,0.8426971-0.3860016,1.3089981C7.0863304,9.1036892,7.4358788,9.8171444,8.048996,10.244997
					c0.7172546,0.4859619,1.5028687,0.8624229,2.3310013,1.1170006c0.9373322,0.3080025,1.9453316,0.616333,3.0239983,0.9249992
					c1.0614243,0.3007545,2.0782852,0.7409248,3.0239983,1.3089981c0.94104,0.5688667,1.7386055,1.3465881,2.3310013,2.2729988
					c0.6692924,1.1556854,0.9905014,2.4801064,0.9249992,3.8139992c0.0311356,1.3704224-0.2592926,2.7290764-0.8479996,3.9669991
					c-0.5395546,1.0998611-1.3235474,2.0617256-2.2919998,2.8120003c-0.9992638,0.7639542-2.13731,1.3266907-3.3510017,1.6570015
					c-1.3107491,0.3643379-2.6655731,0.5457191-4.026001,0.5390015c-1.6776085,0.0155869-3.3453522-0.2580833-4.9300003-0.8090019
					c-1.5761795-0.575489-3.0182877-1.4666824-4.237999-2.6189995l4.2750015-4.7000008
					c0.6097641,0.8163376,1.4100418,1.4710503,2.3310013,1.9070015c1.361927,0.6702347,2.9142723,0.8469582,4.3920021,0.5
					c0.4731102-0.1049919,0.9278259-0.2802696,1.348999-0.5200005c0.3840599-0.2184525,0.7133751-0.5214348,0.9630013-0.8860016
					c0.2487335-0.376812,0.3764343-0.8206139,0.3660011-1.2719994c0.0272789-0.7645149-0.3258743-1.4929123-0.9430008-1.9449997
					c-0.7238121-0.5215988-1.5230217-0.9296341-2.3699989-1.2099953c-0.9506683-0.3333359-1.9776649-0.6666679-3.0810013-1
					c-1.078331-0.3227654-2.1132965-0.7757721-3.0820007-1.348999c-0.9451981-0.5598984-1.754055-1.3229828-2.368-2.2340012
					c-0.676815-1.0964088-1.0059128-2.3720055-0.9440002-3.6590004C0.8563384,7.5246944,1.1533049,6.2001972,1.7519988,5.0039997
					C2.3117142,3.9227409,3.1003456,2.97645,4.0629997,2.230999c0.9966125-0.7612742,2.1266594-1.3296889,3.3320007-1.6760005
					c1.2636604-0.3702603,2.5742188-0.5558472,3.8909988-0.5509987c1.5138397-0.0035362,3.0198479,0.2171936,4.4690018,0.6550007
					c1.4418564,0.4402542,2.76968,1.1912098,3.8899994,2.2000008L15.5229988,7.3570004z"/>
			</g>
			<g id="Group_216" transform="translate(47.702 21.109)">
				<path id="Path_183" d="M0,3.5440028c-0.0025101-0.4756317,0.0892563-0.9470444,0.2699966-1.387001
					c0.3468551-0.8582114,1.0276108-1.5386008,1.8860016-1.885002c0.889679-0.3597412,1.8843231-0.3597412,2.7740021,0
					c0.8599319,0.3463478,1.5416489,1.0280724,1.8880005,1.8880004c0.3594742,0.8893852,0.3594742,1.8836138,0,2.772999
					C6.4717712,5.7923169,5.7898636,6.4731336,4.9300003,6.8180013c-0.8893814,0.3594742-1.8836212,0.3594742-2.7730026,0
					C1.2969208,6.472218,0.6153259,5.790257,0.2699967,4.9300008C0.0891571,4.4904256-0.0026169,4.0193181,0,3.5440028z"/>
			</g>
		</g>
		<g id="Group_224" transform="translate(18.724 62.317)">
			<g id="Group_218" transform="translate(0 0.481)">
				<path id="Path_184" d="M6.3320007,2.7239954C6.1205196,2.4167216,5.8221054,2.1795924,5.4750004,2.0429957
					C5.1159115,1.8983806,4.7321129,1.8250164,4.3450012,1.8269962c-0.22966-0.0007668-0.4585953,0.025753-0.6819992,0.0789986
					c-0.2111702,0.0503464-0.4118748,0.137329-0.5930004,0.2570037c-0.1756153,0.116394-0.3212395,0.2726364-0.4249992,0.4560013
					C2.5335159,2.8229105,2.4779682,3.052685,2.4840031,3.2850001c-0.0203953,0.3419952,0.1292782,0.6720276,0.3999996,0.882004
					C3.188055,4.390408,3.5228634,4.5685925,3.8780022,4.6960034c0.3953323,0.1499939,0.8286667,0.2943344,1.2999992,0.4329987
					C5.6355362,5.2618375,6.0728779,5.4562879,6.4780006,5.707005C6.8771992,5.9559674,7.216589,6.2898984,7.4720001,6.6850019
					c0.2889767,0.4888611,0.4280605,1.0518112,0.3999996,1.6190028c0.0126438,0.5504761-0.1023617,1.096405-0.3360004,1.5950012
					c-0.214365,0.4381256-0.524313,0.8225708-0.9069996,1.1249924c-0.3937626,0.3067474-0.8424587,0.5355072-1.3220005,0.6740036
					c-0.5149784,0.1515274-1.0491924,0.2276535-1.5859985,0.2259979c-0.6940536,0.0018997-1.3830948-0.1175613-2.0359993-0.3529968
					c-0.6569958-0.2381592-1.2381554-0.6480408-1.6830006-1.1869965l1.5189991-1.4710083
					C1.7630671,9.283268,2.0973644,9.5841408,2.4909992,9.7859993c0.3931103,0.2067566,0.8308315,0.3142166,1.2749996,0.3130035
					c0.2384014-0.0018387,0.4754906-0.0354691,0.7049999-0.0999985c0.2279758-0.0607986,0.4444923-0.1584167,0.6410007-0.2890015
					C5.3021278,9.5844383,5.4611511,9.417202,5.5769997,9.2210045C5.6968403,9.01437,5.7577152,8.7788277,5.7530003,8.5400047
					c0.0223427-0.3652267-0.1252937-0.720283-0.3999996-0.9619975C5.05476,7.335629,4.7190304,7.1434445,4.3590012,7.009007
					C3.9590015,6.8550076,3.531002,6.7090039,3.0590019,6.5680051c-0.4561291-0.132164-0.8931293-0.3230972-1.2999994-0.5680008
					C1.3607653,5.7561612,1.0213393,5.427319,0.7650031,5.0370069c-0.2891598-0.4858551-0.428318-1.0463183-0.3999996-1.6110003
					C0.3508548,2.8955882,0.4752826,2.3706477,0.7260036,1.9030079c0.2338428-0.4197464,0.5563201-0.7835121,0.9449996-1.0659981
					C2.0759354,0.547707,2.529438,0.333321,3.010004,0.2040104c0.501339-0.138092,1.0189896-0.2080536,1.5389996-0.2080002
					C5.139782-0.0054585,5.7270622,0.0866855,6.2890034,0.269009c0.5652771,0.1844139,1.0826759,0.4917793,1.5149994,0.9000015
					L6.3320007,2.7239954z"/>
			</g>
			<g id="Group_219" transform="translate(9.923)">
				<path id="Path_185" d="M1.9280016,5.499001h0.0319996c0.1816845-0.3565598,0.455492-0.6579895,0.7929993-0.8730011
					C3.190058,4.3474965,3.7022517,4.2102895,4.2200017,4.2330022c0.4489861-0.0132523,0.8952408,0.0742264,1.3059998,0.2559967
					c0.3379631,0.1557388,0.6363869,0.385788,0.8730011,0.6729965c0.2270584,0.2830963,0.3910446,0.6114197,0.480999,0.9629974
					c0.0972061,0.3714752,0.1456146,0.7540207,0.144001,1.1380005v4.8580012H5.098V8.220993
					c0-0.2139969-0.0110016-0.4509959-0.0320015-0.712997C5.0469937,7.255013,4.9903684,7.0062795,4.8979993,6.7699971
					C4.8097425,6.5435262,4.6631093,6.3444448,4.473,6.1929936C4.2460294,6.0271382,3.9687045,5.9448247,3.688,5.9599919
					C3.4092505,5.9511342,3.1321738,6.0062108,2.8780005,6.120995C2.665724,6.2219319,2.479315,6.3700337,2.3330004,6.5539937
					c-0.1455822,0.1849899-0.2520695,0.3976212-0.3129997,0.625c-0.065958,0.2401276-0.0995884,0.4879761-0.1000004,0.7369995
					v4.1999965H0.0000003V-0.0009991h1.9280014V5.499001z"/>
			</g>
			<g id="Group_220" transform="translate(19.012 0.658)">
				<path id="Path_186" d="M0.0000001,1.1499981c-0.0019302-0.3060875,0.122963-0.5993118,0.3450012-0.8100014
					c0.2309685-0.2304726,0.546875-0.3553162,0.8730012-0.3450012c0.327858-0.0095024,0.6467171,0.1080093,0.8899993,0.3279991
					c0.4561844,0.4226342,0.483387,1.1350594,0.0607529,1.5912437C2.1492844,1.9352573,2.1290169,1.955521,2.1080017,1.9749912
					C1.8647195,2.1949847,1.5458642,2.3125002,1.2180024,2.302994C0.8918763,2.313309,0.5759698,2.1884692,0.3450013,1.9579929
					C0.1234704,1.7477802-0.001377,1.4553875,0.0000001,1.1499981z M0.2729989,3.7630007h1.9230003v7.6949997H0.2729989V3.7630007z"
					/>
			</g>
			<g id="Group_221" transform="translate(23.163 4.232)">
				<path id="Path_187" d="M1.9239998,4.7129974C1.9591904,5.2341461,2.201992,5.7193909,2.5979996,6.0599976
					c0.3915596,0.3230133,0.8865662,0.4938202,1.394001,0.4810028c0.4232597,0.013298,0.8419762-0.0905151,1.2099991-0.3000031
					C5.5284767,6.0431137,5.8186684,5.790802,6.0600014,5.4949951l1.3779984,1.0429993
					c-0.3961143,0.513382-0.9136314,0.9202499-1.5060005,1.1840057C5.3795013,7.9565125,4.785202,8.0765915,4.1849976,8.0749969
					c-0.5578918,0.0031815-1.1117744-0.0943832-1.6349983-0.288002C2.0563698,7.6061249,1.6040916,7.3279572,1.2199974,6.9689941
					C0.8400841,6.6086197,0.537304,6.1748581,0.329998,5.6939926c-0.4391937-1.0627441-0.4391937-2.2562559,0-3.319
					C0.5373269,1.8941424,0.840107,1.4603884,1.2199974,1.0999911c0.3838844-0.3590012,0.8362389-0.636879,1.3300018-0.8170013
					C3.07304,0.0885851,3.6270065-0.0093382,4.1849976-0.0060117C4.6876068-0.0121076,5.186264,0.0834734,5.6509972,0.2749865
					c0.4356232,0.1806183,0.824688,0.4575424,1.1380005,0.8099976c0.3317909,0.3809433,0.5828514,0.8252335,0.737999,1.3059998
					c0.185051,0.57724,0.2742348,1.1809082,0.2639999,1.7870023v0.5289993L1.9239998,4.7129974z M5.868,3.2699969
					C5.8836784,2.7698443,5.6922836,2.2853854,5.3390007,1.931C4.9458923,1.5872195,4.4333,1.4119265,3.9119987,1.443001
					c-0.5058899-0.026123-1.0006981,0.154335-1.3709984,0.5C2.1907158,2.3037112,1.9731903,2.7726061,1.9239998,3.2730029
					L5.868,3.2699969z"/>
			</g>
			<g id="Group_222" transform="translate(32.91)">
				<path id="Path_188" d="M-0.0000002-0.0009991h1.9230003v12.1200027h-1.9230003V-0.0009991z"/>
			</g>
			<g id="Group_223" transform="translate(36.789)">
				<path id="Path_189" d="M6.4770017,10.9660034H6.4440007c-0.2570953,0.451004-0.6496506,0.8096237-1.1220016,1.0250015
					c-0.4786415,0.215271-0.9981918,0.32444-1.5229988,0.3199997c-0.5477638,0.0101318-1.0914307-0.0962143-1.5950012-0.3119965
					c-0.4532586-0.2000504-0.8601457-0.4918518-1.1949998-0.8570023c-0.3361854-0.3716049-0.5924759-0.8082886-0.7529984-1.2829971
					c-0.1744804-0.5107346-0.2613716-1.0472946-0.257-1.586998c-0.0040474-0.5413432,0.088398-1.0790858,0.2729988-1.587997
					c0.1700706-0.4719467,0.4287033-0.907074,0.762001-1.2819977c0.3287926-0.3653564,0.730854-0.6573715,1.1800004-0.8570175
					c0.4739723-0.2114105,0.9880486-0.3178406,1.507-0.3119965c0.3241806-0.004837,0.6476021,0.032814,0.9620018,0.1119995
					c0.2565804,0.0662994,0.5043297,0.1629868,0.737999,0.288002c0.19487,0.1054153,0.3776207,0.2318344,0.5449982,0.3769989
					C6.1012349,5.1289525,6.224793,5.2605519,6.3349996,5.4030004h0.0480003v-5.4039993h1.9239993v12.1200027H6.4770017V10.9660034z
					 M1.9240001,8.2720032C1.9233555,8.5670319,1.9748119,8.8598633,2.0760007,9.137001
					C2.1745915,9.4103546,2.3273053,9.6610184,2.525002,9.8740005c0.8573227,0.9162369,2.2950821,0.9640045,3.2113228,0.1066818
					c0.0367317-0.0343704,0.0723076-0.0699539,0.106678-0.1066818C6.0403523,9.660759,6.1930165,9.4101715,6.2920041,9.137001
					c0.2027473-0.5595322,0.2027473-1.1724696,0-1.7320018c-0.0994263-0.2732544-0.2520332-0.524086-0.4490013-0.737999
					c-0.859745-0.9162369-2.299469-0.9620361-3.2157097-0.1022949C2.5921216,6.5977101,2.5580068,6.6318288,2.525002,6.6670003
					c-0.1972885,0.2136688-0.3499374,0.4645691-0.4490013,0.737999C1.9747013,7.6828008,1.9232448,7.9763112,1.9240001,8.2720032z"
					/>
			</g>
		</g>
	</g>
</g>
</svg>
