<?xml version="1.0" encoding="utf-8"?>
<!-- Generator: Adobe Illustrator 25.2.3, SVG Export Plug-In . SVG Version: 6.00 Build 0)  -->
<svg version="1.1" xmlns="http://www.w3.org/2000/svg" xmlns:xlink="http://www.w3.org/1999/xlink" x="0px" y="0px"
	 viewBox="0 0 624 200" style="enable-background:new 0 0 624 200;" xml:space="preserve">
<style type="text/css">
	.st0{display:none;}
	.st1{display:inline;}
	.st2{fill:#F0F3F6;}
	.st3{display:inline;fill:#F0F3F6;}
	.st4{fill:#4F8DB8;}
	.st5{fill:#0A203B;}
	.st6{fill:none;stroke:#FFFFFF;stroke-width:8.9999981;stroke-miterlimit:10;}
	.st7{stroke:#FFFFFF;stroke-miterlimit:10;}
	.st8{fill:url(#SVGID_1_);}
	.st9{fill:#005A92;}
	.st10{fill:#FFFFFF;}
	.st11{fill:url(#SVGID_2_);}
	.st12{fill:url(#SVGID_3_);}
	.st13{fill:none;stroke:#FFFFFF;stroke-width:9;stroke-miterlimit:10;}
	.st14{fill:none;stroke:#000000;stroke-width:9;stroke-miterlimit:10;}
	.st15{fill:none;stroke:#606161;stroke-width:0.5;stroke-miterlimit:10;}
	.st16{fill:none;stroke:#000000;stroke-width:0.9210886;stroke-miterlimit:10;}
	.st17{fill:none;stroke:#FFFFFF;stroke-width:0.9210886;stroke-miterlimit:10;}
	.st18{clip-path:url(#SVGID_5_);}
	.st19{fill:none;stroke:#FFFFFF;stroke-width:4;stroke-miterlimit:10;}
	.st20{fill:none;stroke:#F5BE41;stroke-width:3;stroke-miterlimit:10;}
	.st21{fill:#231E20;}
	.st22{fill:url(#SVGID_6_);}
	.st23{fill:url(#SVGID_7_);}
	.st24{fill:url(#SVGID_8_);}
	.st25{fill:url(#SVGID_9_);}
	.st26{fill:url(#SVGID_10_);}
	.st27{fill:url(#SVGID_11_);}
	.st28{fill:none;stroke:#FFFFFF;stroke-width:3.6709352;stroke-miterlimit:10;}
	.st29{fill:none;stroke:#FFFFFF;stroke-width:1.612082;stroke-miterlimit:10;}
	.st30{fill:none;stroke:#FFFFFF;stroke-width:2.187361;stroke-miterlimit:10;}
</style>
<g id="Layer_2" class="st0">
</g>
<g id="Layer_1">
	<g>
		<g>
			<g>
				<path d="M238.4633484,69.3030472c-2.0185547-2.5484619-4.753418-4.432373-8.2026367-5.6542931
					c-3.4521484-1.2194824-6.7172852-1.831665-9.7954102-1.831665c-1.8071289,0-3.6635742,0.2139893-5.574707,0.637085
					c-1.9116211,0.4255371-3.7182617,1.0900879-5.4155273,1.990963c-1.699707,0.9033203-3.0810547,2.0979004-4.1411133,3.5836182
					c-1.0625,1.4882812-1.5927734,3.2926025-1.5927734,5.4154053c0,3.3995361,1.2744141,6.0002441,3.8227539,7.8045654
					c2.5483398,1.8067627,5.7587891,3.3447266,9.6362305,4.6188965c3.8745117,1.274292,8.043457,2.5484619,12.5029297,3.8226318
					c4.4599609,1.274292,8.6259766,3.0810547,12.5029297,5.4154053c3.875,2.3369141,7.0878906,5.4700928,9.6362305,9.3972168
					c2.5488281,3.9296875,3.8227539,9.185791,3.8227539,15.7683105c0,6.2664795-1.1694336,11.7341385-3.5039062,16.4054031
					c-2.3369141,4.6737061-5.4951172,8.548584-9.4770508,11.6270752c-3.9819336,3.0810547-8.6010742,5.3631592-13.8569336,6.848877
					s-10.8056641,2.2298584-16.6445312,2.2298584c-7.3266602,0-14.1230469-1.1148682-20.387207-3.3447266
					c-6.2661133-2.2298584-12.1049805-5.838501-17.5200195-10.8308105l17.6796875-19.4316483
					c2.5483398,3.3995361,5.7587891,6.0275955,9.6357422,7.8841629c3.875,1.8591309,7.8842773,2.7873535,12.0253906,2.7873535
					c2.0161133,0,4.0615234-0.2388916,6.1323242-0.7167969c2.0703125-0.4777832,3.9272461-1.194458,5.574707-2.1501465
					c1.6450195-0.9556885,2.9711914-2.1751709,3.9819336-3.6633377c1.0078125-1.4857178,1.5126953-3.237793,1.5126953-5.2561035
					c0-3.3970947-1.3012695-6.0773926-3.9018555-8.043457c-2.6035156-1.963501-5.8686523-3.6359863-9.7954102-5.0172119
					c-3.9296875-1.3786621-8.1782227-2.7598877-12.7421875-4.1411133c-4.5668945-1.3786621-8.8149414-3.237793-12.7421875-5.574585
					c-3.9296875-2.3344727-7.1948242-5.4154053-9.7954102-9.2380371c-2.6030273-3.8226318-3.9023438-8.864624-3.9023438-15.1312256
					c0-6.0524902,1.1948242-11.3608398,3.5839844-15.9274864c2.3891602-4.564209,5.574707-8.3868408,9.5561523-11.4678955
					c3.9819336-3.0784912,8.5737305-5.3879395,13.7773438-6.9284668c5.2016602-1.5379639,10.5644531-2.3094482,16.0869141-2.3094482
					c6.3710938,0,12.5283203,0.9033203,18.4760742,2.7076416c5.9453125,1.8067627,11.3085938,4.8330078,16.0869141,9.0787354
					L238.4633484,69.3030472z"/>
			</g>
			<g>
				<path d="M268.0868835,98.1319046c0-9.0239258,1.5131836-17.2017822,4.5390625-24.5284424
					c3.0263672-7.3266602,7.2470703-13.5633507,12.6625977-18.7148399
					c5.4155273-5.1491699,11.8383789-9.1036377,19.2724609-11.8660889
					c7.4311523-2.7598877,15.5541992-4.1411133,24.3691406-4.1411133c8.8125,0,16.9355469,1.3812256,24.3691406,4.1411133
					c7.4311523,2.7624512,13.8569336,6.7169189,19.2724609,11.8660889
					c5.4150391,5.1514893,9.6357422,11.3881798,12.6621094,18.7148399s4.5395508,15.5045166,4.5395508,24.5284424
					c0,9.0264893-1.5131836,17.2017822-4.5395508,24.5284424c-3.0263672,7.3266678-7.2470703,13.5658035-12.6621094,18.7148514
					c-5.4155273,5.1516113-11.8413086,9.1060791-19.2724609,11.8660889
					c-7.4335938,2.7598877-15.5566406,4.1411133-24.3691406,4.1411133c-8.8149414,0-16.9379883-1.3812256-24.3691406-4.1411133
					c-7.434082-2.7600098-13.8569336-6.7144775-19.2724609-11.8660889
					c-5.4155273-5.1490479-9.6362305-11.3881836-12.6625977-18.7148514
					C269.6000671,115.3336868,268.0868835,107.1583939,268.0868835,98.1319046z M293.8891296,98.1319046
					c0,5.310791,0.8212891,10.1687012,2.4692383,14.5737305c1.6450195,4.4074707,4.0063477,8.2299805,7.0874023,11.4677734
					c3.0786133,3.2403564,6.7695312,5.7613602,11.0698242,7.5656815c4.300293,1.8067627,9.1035156,2.7076416,14.4145508,2.7076416
					c5.3081055,0,10.1137695-0.9008789,14.4140625-2.7076416c4.3007812-1.8043213,7.9887695-4.325325,11.0698242-7.5656815
					c3.0786133-3.237793,5.4404297-7.0603027,7.0878906-11.4677734c1.6450195-4.4050293,2.46875-9.2629395,2.46875-14.5737305
					c0-5.2012939-0.8237305-10.0344238-2.46875-14.4941406c-1.6474609-4.4597168-4.0092773-8.3071289-7.0878906-11.5473633
					c-3.0810547-3.237793-6.769043-5.7589111-11.0698242-7.5656738c-4.300293-1.8043175-9.105957-2.7076378-14.4140625-2.7076378
					c-5.3110352,0-10.1142578,0.9033203-14.4145508,2.7076378c-4.300293,1.8067627-7.9912109,4.3278809-11.0698242,7.5656738
					c-3.0810547,3.2402344-5.4423828,7.0876465-7.0874023,11.5473633
					C294.7104187,88.0974808,293.8891296,92.9306107,293.8891296,98.1319046z"/>
			</g>
			<g>
				<path d="M443.7655945,41.7483635h20.5463867l49.0570984,112.7670898h-28.0326843l-9.7158203-23.8913574h-43.8007812
					l-9.3969727,23.8913574h-27.3955078L443.7655945,41.7483635z M453.3222351,74.5591507l-13.6977539,35.0405273h27.5546875
					L453.3222351,74.5591507z"/>
			</g>
			<g>
				<path d="M524.6771851,41.7483635h43.6416016c5.7338867,0,11.1743164,0.5574951,16.3256836,1.6723633
					c5.1489258,1.1149902,9.6611328,2.973999,13.5385742,5.574707c3.875,2.6031494,6.953125,6.1071777,9.237793,10.512085
					c2.2822266,4.4074707,3.4243164,9.902462,3.4243164,16.4851036c0,7.9637451-2.0703125,14.7329102-6.2114258,20.3076172
					c-4.1411133,5.574585-10.1938477,9.1060791-18.1577148,10.5917969l28.6699219,47.6234207h-29.784668l-23.5727539-45.0749588
					H549.524353v45.0749588h-24.847168V41.7483635z M549.524353,88.4160843h14.6533203
					c2.2299805,0,4.5913086-0.0795898,7.0878906-0.2388916c2.4936523-0.1593018,4.7504883-0.637085,6.769043-1.4334717
					c2.015625-0.7963867,3.6879883-2.0432129,5.0170898-3.743042c1.3266602-1.6972656,1.9912109-4.0864258,1.9912109-7.1673584
					c0-2.8669434-0.5849609-5.1490479-1.7524414-6.848877c-1.1694336-1.6972656-2.6552734-2.9987793-4.4594727-3.9022217
					c-1.8066406-0.9008789-3.8774414-1.5131798-6.2119141-1.8316612c-2.3369141-0.3186035-4.6186523-0.4777832-6.8486328-0.4777832
					H549.524353V88.4160843z"/>
			</g>
		</g>
		<g>
			<path d="M72.9537354,174.1705017l-52.0629845-21.0927734L10.6646767,52.3002663l62.2890587-26.4988995l62.2890625,26.4988995
				l-10.2265625,100.7774658L72.9537354,174.1705017z M27.6261024,148.0262146l45.3276329,18.3640137l45.3271484-18.3640137
				l9.2519531-91.1697998L72.9537354,33.6377907L18.3746376,56.8564186L27.6261024,148.0262146z"/>
		</g>
		<g>
			<g>
				<path d="M65.6179504,77.2486877c-0.8650894-1.0524826-1.9271927-1.8617325-3.1869583-2.4251938
					c-1.2597694-0.5641098-2.7165527-0.8464813-4.3710022-0.8464813c-1.6550865,0-3.1869583,0.3202362-4.5968971,0.958786
					c-1.4099388,0.6398315-2.6324844,1.5325089-3.6663513,2.6793289c-1.0345116,1.1474609-1.8424835,2.5099106-2.4251976,4.0892715
					c-0.5833549,1.579361-0.8740692,3.2909241-0.8740692,5.1327667c0,1.8803406,0.2907143,3.6008911,0.8740692,5.1603546
					c0.5827141,1.5607529,1.3823433,2.914856,2.3976021,4.0610352c1.0152588,1.1474609,2.2082825,2.0401382,3.5809975,2.6793289
					c1.372715,0.6398315,2.8487549,0.958786,4.4281158,0.958786c1.8046188,0,3.4025917-0.3754272,4.7939186-1.1282043
					c1.390686-0.751503,2.5381432-1.8046188,3.4404564-3.1580887l7.3327026,5.4709702
					c-1.6923141,2.368721-3.8357773,4.1175079-6.430397,5.2450714c-2.5939789,1.128212-5.2643242,1.6923141-8.0091133,1.6923141
					c-3.1215019,0-5.9978523-0.4890213-8.6290512-1.4664154c-2.6324844-0.9773941-4.9075089-2.3777008-6.8250771-4.2022171
					c-1.9175644-1.8232269-3.4122162-4.0327911-4.4839478-6.6274109c-1.0717316-2.5939789-1.6076012-5.4895859-1.6076012-8.685524
					c0-3.1959457,0.5358696-6.0915527,1.6076012-8.6861725s2.5663834-4.8029022,4.4839478-6.6274109
					c1.9175682-1.8232269,4.1925926-3.2235413,6.8250771-4.2022171c2.6311989-0.9767532,5.5075493-1.4664154,8.6290512-1.4664154
					c1.1282043,0,2.3032608,0.1039658,3.5251656,0.3106079c1.2219009,0.2066498,2.4258347,0.5358658,3.6098785,0.9870224
					c1.1846771,0.4511566,2.321228,1.0531235,3.4122162,1.8046188c1.0903397,0.7527771,2.0677338,1.6736984,2.9334641,2.7640457
					L65.6179504,77.2486877z"/>
			</g>
			<g>
				<path d="M97.8803101,76.6281052c-0.71492-0.9023056-1.6833267-1.5697327-2.9052277-2.0022736
					c-1.2219086-0.4319-2.3783493-0.648819-3.4686966-0.648819c-0.6398315,0-1.2969894,0.0757294-1.9740372,0.2258987
					c-0.6764145,0.1508102-1.316246,0.3856964-1.917572,0.7046509c-0.6019669,0.3202362-1.0909805,0.7431488-1.4664078,1.2693939
					c-0.3760681,0.5268784-0.5641022,1.166069-0.5641022,1.9175644c0,1.2039337,0.451149,2.124855,1.3534622,2.7640457
					c0.9029465,0.6398315,2.0394974,1.1840363,3.4128571,1.6351929c1.3720703,0.4511566,2.848114,0.9023056,4.427475,1.3541031
					c1.579361,0.4511566,3.0547562,1.0909882,4.427475,1.9175644c1.3720703,0.8272247,2.509903,1.936821,3.4122162,3.327507
					c0.9029465,1.3919678,1.3541031,3.2530594,1.3541031,5.5839233c0,2.2191925-0.4145737,4.155365-1.2411575,5.8098145
					c-0.8272247,1.6550903-1.9458008,3.0271606-3.3557358,4.1168671c-1.4099426,1.0909805-3.0457764,1.8995972-4.9075089,2.4258347
					c-1.8610916,0.5255966-3.826149,0.78936-5.8938904,0.78936c-2.5946198,0-5.0012054-0.3946762-7.2191162-1.1846848
					c-2.2191925-0.78936-4.2869263-2.0670929-6.2044907-3.8351288l6.2603302-6.8809128
					c0.9029465,1.2032928,2.0394974,2.1344833,3.4128571,2.7916412c1.3720703,0.6584396,2.7916336,0.9870224,4.258049,0.9870224
					c0.7142715,0,1.4381714-0.0847092,2.1716995-0.2534943c0.7328873-0.169426,1.390686-0.4235611,1.9740448-0.7617645
					c0.5827103-0.3382034,1.0524826-0.7701111,1.409935-1.2969894c0.3568192-0.5262375,0.5358658-1.1468201,0.5358658-1.8617325
					c0-1.202652-0.4607773-2.1518097-1.3816986-2.848114c-0.9222031-0.6950226-2.0780029-1.2873611-3.468689-1.7763824
					c-1.3919678-0.4883728-2.8962479-0.9773941-4.5121841-1.4664078c-1.6172256-0.4883804-3.1215057-1.1468201-4.5121918-1.9746857
					c-1.3919678-0.8265839-2.5477676-1.9175644-3.468689-3.2710342c-0.9222031-1.3534622-1.3823395-3.1394653-1.3823395-5.358017
					c0-2.1434631,0.4229126-4.0231705,1.2693863-5.6403961c0.8458405-1.6165848,1.9740448-2.970047,3.3839798-4.0610275
					c1.4099426-1.0903473,3.0361481-1.9079437,4.8786316-2.4534378c1.8418427-0.5448456,3.7414398-0.8182373,5.6968689-0.8182373
					c2.2564163,0,4.4364624,0.3202362,6.5427017,0.958786c2.1055984,0.6398315,4.0045547,1.7115631,5.6968689,3.2151947
					L97.8803101,76.6281052z"/>
			</g>
			<g>
				<path d="M107.207962,101.9530869c0-0.7142792,0.1309128-1.390686,0.3946762-2.0305176
					c0.2624817-0.6391907,0.6289215-1.1936646,1.099968-1.6640778c0.4697647-0.4697647,1.0236053-0.8362045,1.6634369-1.099968
					c0.639183-0.2624741,1.3162384-0.3946762,2.0305099-0.3946762c0.7142792,0,1.390686,0.1322021,2.0305176,0.3946762
					c0.6391907,0.2637634,1.1936646,0.6302032,1.6640778,1.099968c0.4697647,0.4704132,0.8362045,1.0248871,1.099968,1.6640778
					c0.2624741,0.6398315,0.3946762,1.3162384,0.3946762,2.0305176c0,0.7142715-0.1322021,1.3913269-0.3946762,2.0305099
					c-0.2637634,0.6398315-0.6302032,1.1936722-1.099968,1.6634369c-0.4704132,0.4710464-1.0248871,0.8374863-1.6640778,1.099968
					c-0.6398315,0.2624741-1.3162384,0.3946762-2.0305176,0.3946762c-0.7142715,0-1.3913269-0.1322021-2.0305099-0.3946762
					c-0.6398315-0.2624817-1.1936722-0.6289215-1.6634369-1.099968c-0.4710464-0.4697647-0.8374863-1.0236053-1.099968-1.6634369
					C107.3388748,103.3444138,107.207962,102.6673584,107.207962,101.9530869z"/>
			</g>
		</g>
		<g>
			<g>
				<path d="M47.3535767,121.7448349c-0.313179-0.4537201-0.7316017-0.7861481-1.2552757-0.9979248
					c-0.5249557-0.2111435-1.0762253-0.316391-1.6550903-0.316391c-0.3446198,0-0.6770515,0.0391464-0.9979286,0.116806
					c-0.3208771,0.0789337-0.6103096,0.2040787-0.8682976,0.3760681c-0.2579842,0.1719894-0.4659119,0.3953171-0.6218605,0.6687088
					c-0.1565895,0.274025-0.2348824,0.5987549-0.2348824,0.9741821c0,0.5634613,0.1957359,0.9940796,0.5872078,1.291214
					c0.3908272,0.2971344,0.8759956,0.5551224,1.4548607,0.7745972c0.5788612,0.2188416,1.2129173,0.4306183,1.9015236,0.6334152
					c0.6886024,0.2034378,1.3220139,0.4851685,1.9008789,0.845192s1.0640335,0.8374939,1.4555016,1.4317627
					c0.390831,0.5949097,0.5872078,1.384903,0.5872078,2.370636c0,0.8920441-0.1642876,1.6705017-0.4928665,2.3359985
					c-0.3292236,0.664856-0.7713928,1.2167664-1.3265114,1.6544495c-0.5557594,0.438324-1.2013664,0.7668915-1.936821,0.985733
					c-0.7354507,0.2188416-1.5100517,0.3285828-2.3237953,0.3285828c-1.0325851,0-2.0266685-0.1719971-2.980957-0.515976
					c-0.9542923-0.3439789-1.7757416-0.9234772-2.464344-1.7372284l2.2301025-2.1595154
					c0.3593826,0.5480652,0.8330002,0.9741974,1.4195633,1.2790222c0.5872078,0.305481,1.2090683,0.4582214,1.8662262,0.4582214
					c0.3439827,0,0.6886063-0.0468597,1.0332298-0.1411896c0.3439789-0.0937042,0.6571579-0.2342377,0.9388885-0.4222717
					c0.281086-0.1880341,0.5082703-0.4261322,0.6802597-0.7162018c0.1719894-0.2894287,0.2586288-0.6218719,0.2586288-0.9972992
					c0-0.6103058-0.1963768-1.0800629-0.5872078-1.4086456c-0.3914719-0.3285828-0.8766403-0.6058197-1.4555016-0.8330078
					c-0.5788651-0.226532-1.2122765-0.4421616-1.9008827-0.6455994c-0.6886024-0.2034378-1.3226585-0.4813156-1.9015236-0.8330002
					c-0.5788612-0.3523254-1.0640297-0.8220901-1.4555016-1.4086533c-0.390831-0.5865631-0.5865631-1.3733597-0.5865631-2.3591003
					c0-0.8605881,0.1758385-1.6037445,0.5281639-2.2300949c0.3523216-0.6257172,0.8137474-1.1455383,1.3849106-1.5607529
					c0.5711594-0.4145737,1.2244682-0.723259,1.9599228-0.9273376c0.7354507-0.2027969,1.4863052-0.3048325,2.2532043-0.3048325
					c0.8766365,0,1.7256813,0.132843,2.5471306,0.3991699c0.8214455,0.2663269,1.5607491,0.7040024,2.217907,1.3143158
					L47.3535767,121.7448349z"/>
			</g>
			<g>
				<path d="M55.4281502,125.1012192h0.0468483c0.2194786-0.4691238,0.6064568-0.8952484,1.16222-1.2790146
					c0.5551186-0.3831329,1.2713165-0.5750122,2.1479568-0.5750122c0.7508545,0,1.3881187,0.1251373,1.9130745,0.3754272
					c0.523674,0.2502823,0.9504395,0.5788574,1.2790184,0.985733s0.5634613,0.8766403,0.7040062,1.4086533
					c0.1411858,0.5320206,0.2111397,1.0877762,0.2111397,1.6666412v7.1119461h-2.8166695v-5.7039337
					c0-0.3125305-0.0153999-0.6610107-0.0468483-1.0447845c-0.0314445-0.3831177-0.1135902-0.7425079-0.2464333-1.0794296
					c-0.132843-0.3362732-0.3401299-0.6180115-0.6218605-0.845192c-0.2817307-0.2265396-0.6655006-0.340126-1.1500282-0.340126
					c-0.4697647,0-0.8650856,0.0782928-1.1853218,0.2348785c-0.3215218,0.1565933-0.5872078,0.3677292-0.7983437,0.6334152
					c-0.2111397,0.2663269-0.3638763,0.5718079-0.4575729,0.9157867c-0.0943375,0.3439789-0.1411858,0.70401-0.1411858,1.0794373
					v6.1499481h-2.8166695v-17.7452011h2.8166695V125.1012192z"/>
			</g>
			<g>
				<path d="M65.9202194,119.702774c0-0.4537277,0.1674957-0.8490448,0.5044174-1.1853256
					c0.3362808-0.3362808,0.7630463-0.5050659,1.2790222-0.5050659c0.5166092,0,0.9510803,0.161087,1.3027649,0.4813232
					c0.3523254,0.3208771,0.5281677,0.7238998,0.5281677,1.2090683c0,0.4851608-0.1758423,0.8881836-0.5281677,1.2084198
					c-0.3516846,0.3208847-0.7861557,0.4813232-1.3027649,0.4813232c-0.515976,0-0.9427414-0.1681442-1.2790222-0.504425
					C66.0877151,120.5518112,65.9202194,120.1564941,65.9202194,119.702774z M66.3187485,123.528923h2.8166656v11.2666702
					h-2.8166656V123.528923z"/>
			</g>
			<g>
				<path d="M74.8162384,130.147995c0.0943375,0.8451843,0.4229202,1.5023499,0.9863815,1.9714661
					c0.5628204,0.4697723,1.243721,0.7046509,2.0420685,0.7046509c0.7040024,0,1.2944183-0.1450348,1.7718887-0.4344635
					c0.4774628-0.2894287,0.8958893-0.6533051,1.2559128-1.091629l2.0189667,1.5260925
					c-0.6577988,0.8137512-1.3932571,1.3926086-2.2070007,1.7365875c-0.8137436,0.3439941-1.6660004,0.5166168-2.5580368,0.5166168
					c-0.845192,0-1.6435394-0.1411896-2.3943939-0.4222717c-0.7514954-0.2817383-1.4009552-0.6809082-1.9483719-1.197525
					c-0.5480576-0.5159607-0.9818878-1.1384735-1.3027649-1.8662262c-0.3208771-0.7270966-0.4813156-1.5370026-0.4813156-2.4290466
					c0-0.8920288,0.1604385-1.7019272,0.4813156-2.4296799s0.7547073-1.349617,1.3027649-1.8662262
					c0.5474167-0.515976,1.1968765-0.9151459,1.9483719-1.1968765c0.7508545-0.2817307,1.549202-0.4222717,2.3943939-0.4222717
					c0.7822952,0,1.4978561,0.1366882,2.147316,0.4107208c0.6494522,0.2740326,1.2052155,0.6687088,1.6666412,1.1853256
					c0.4614182,0.5166092,0.8214417,1.1538773,1.0800705,1.9130707c0.257988,0.759201,0.3869781,1.63134,0.3869781,2.6170883
					v0.7745972H74.8162384z M80.5907593,128.0353241c-0.0154037-0.8291397-0.2740326-1.4824524-0.7745972-1.9599152
					c-0.5012131-0.4768295-1.1968765-0.7155609-2.0889206-0.7155609c-0.845192,0-1.5139008,0.2425842-2.0067673,0.7271118
					c-0.4928665,0.4851685-0.7944946,1.1352692-0.9042358,1.9483643H80.5907593z"/>
			</g>
			<g>
				<path d="M86.2703018,117.0503922h2.8166656v17.7452011h-2.8166656V117.0503922z"/>
			</g>
			<g>
				<path d="M101.4337082,133.1058502h-0.0468445c-0.4075165,0.6885986-0.9549332,1.1891632-1.6428986,1.501709
					c-0.6892471,0.3131714-1.4323959,0.4697571-2.2301025,0.4697571c-0.8766327,0-1.6550827-0.1527405-2.33535-0.4575653
					c-0.6809006-0.305481-1.2642593-0.7239075-1.7487793-1.2559204c-0.4851685-0.5320129-0.8535385-1.1577301-1.1031799-1.8777771
					c-0.2509308-0.7194061-0.3760681-1.4940033-0.3760681-2.3238068c0-0.8291473,0.132843-1.6037445,0.3991699-2.3237915
					c0.265686-0.7194061,0.6372604-1.3457642,1.1147308-1.8777771c0.4774628-0.5320129,1.0524826-0.9510803,1.7256775-1.2559204
					c0.6725616-0.3054733,1.40802-0.4575653,2.2063599-0.4575653c0.5320129,0,1.0011368,0.0545425,1.4080124,0.1642838
					s0.7668991,0.2502899,1.0800781,0.4222794c0.3125305,0.1726303,0.5788651,0.3561707,0.7983398,0.5519104
					c0.2188416,0.1957321,0.3985367,0.3869781,0.5397186,0.5750122h0.0705948v-7.9102859h2.8166656v17.7452011h-2.6761246
					V133.1058502z M94.7671509,129.1622467c0,0.438324,0.07444,0.8605957,0.2233276,1.2674713
					c0.1482468,0.4068756,0.3677292,0.7669067,0.6571579,1.0794373c0.2894363,0.3131714,0.6372681,0.5634613,1.0447845,0.7514954
					c0.4062271,0.1873932,0.8682938,0.2817383,1.384903,0.2817383c0.515976,0,0.9773941-0.0943451,1.3849106-0.2817383
					c0.4062347-0.1880341,0.7547073-0.438324,1.044136-0.7514954c0.2894363-0.3125305,0.5082779-0.6725616,0.6571579-1.0794373
					c0.1488876-0.4068756,0.2233353-0.8291473,0.2233353-1.2674713c0-0.4383087-0.0744476-0.8605804-0.2233353-1.2674637
					c-0.14888-0.406868-0.3677216-0.7668991-0.6571579-1.0800705c-0.2894287-0.3125381-0.6379013-0.5634613-1.044136-0.7508545
					c-0.4075165-0.1880341-0.8689346-0.2817307-1.3849106-0.2817307c-0.5166092,0-0.9786758,0.0936966-1.384903,0.2817307
					c-0.4075165,0.1873932-0.7553482,0.4383163-1.0447845,0.7508545c-0.2894287,0.3131714-0.5089111,0.6732025-0.6571579,1.0800705
					C94.8415909,128.3016663,94.7671509,128.723938,94.7671509,129.1622467z"/>
			</g>
		</g>
	</g>
</g>
</svg>
